<?xml version="1.0" encoding="UTF-8" standalone="no"?>
<!-- Created with Inkscape (http://www.inkscape.org/) -->

<svg
   xmlns:dc="http://purl.org/dc/elements/1.1/"
   xmlns:cc="http://creativecommons.org/ns#"
   xmlns:rdf="http://www.w3.org/1999/02/22-rdf-syntax-ns#"
   xmlns:svg="http://www.w3.org/2000/svg"
   xmlns="http://www.w3.org/2000/svg"
   xmlns:sodipodi="http://sodipodi.sourceforge.net/DTD/sodipodi-0.dtd"
   xmlns:inkscape="http://www.inkscape.org/namespaces/inkscape"
   version="1.1"
   id="svg815"
   xml:space="preserve"
   width="220"
   height="59"
   viewBox="0 0 417.39051 112.92964"
   sodipodi:docname="logo1.svg"
   inkscape:version="0.92.3 (2405546, 2018-03-11)"><metadata
     id="metadata821"><rdf:RDF><cc:Work
         rdf:about=""><dc:format>image/svg+xml</dc:format><dc:type
           rdf:resource="http://purl.org/dc/dcmitype/StillImage" /><dc:title></dc:title></cc:Work></rdf:RDF></metadata><defs
     id="defs819"><clipPath
       clipPathUnits="userSpaceOnUse"
       id="clipPath831"><path
         d="M 0,130.484 H 340.158 V 0 H 0 Z"
         id="path829"
         inkscape:connector-curvature="0" /></clipPath></defs><sodipodi:namedview
     pagecolor="#ffffff"
     bordercolor="#666666"
     borderopacity="1"
     objecttolerance="10"
     gridtolerance="10"
     guidetolerance="10"
     inkscape:pageopacity="0"
     inkscape:pageshadow="2"
     inkscape:window-width="1920"
     inkscape:window-height="1028"
     id="namedview817"
     showgrid="false"
     fit-margin-top="0"
     fit-margin-left="0"
     fit-margin-right="0"
     fit-margin-bottom="0"
     inkscape:zoom="3.1749951"
     inkscape:cx="151.66595"
     inkscape:cy="41.818538"
     inkscape:window-x="1080"
     inkscape:window-y="175"
     inkscape:window-maximized="1"
     inkscape:current-layer="g827" /><g
     id="g823"
     inkscape:groupmode="layer"
     inkscape:label="FinalLogo"
     transform="matrix(1.3333333,0,0,-1.3333333,-19.755422,158.10044)"><g
       id="g825"><g
         id="g827"
         clip-path="url(#clipPath831)"><g
           id="g833"
           transform="translate(71.2676,88.3882)"><path
             d="M 0,0 C -0.634,-0.022 -1.427,0.645 -1.479,1.249 -1.546,2.015 -0.764,2.772 0.12,2.797 0.878,2.818 1.297,2.406 1.29,1.643 1.284,0.832 0.654,0.036 0,0"
             style="fill:#666666;fill-opacity:1;fill-rule:evenodd;stroke:none"
             id="path835"
             inkscape:connector-curvature="0" /></g><g
           id="g837"
           transform="translate(299.2007,112.3535)"><path
             d="M 0,0 C 6.468,0.001 -5.382,-26.508 -10.956,-28.959 -10.771,-24.794 -3.951,-0.657 0,0 m -56.61,-72.065 c -2.899,-5.82 -10.277,-5.916 -8.184,-0.421 1.347,3.175 12.914,16.947 13.501,17.551 -0.448,-3.041 -3.077,-12.66 -5.317,-17.13 m -55.596,72.693 c 3.56,2.947 0.98,-21.884 -4.631,-33.184 -0.655,5.696 0.785,28.654 4.631,33.184 m -6.172,-35.264 c 0.284,-0.789 -20.485,-22.932 -15.612,17.193 1.473,12.152 8.651,24.956 19.501,18.55 -4.78,-8.761 -6.595,-21.945 -3.889,-35.743 m 92.439,14.84 c 0.98,0.548 2.693,0.271 2.862,-0.531 0.552,-1.638 -3.144,-4.724 -6.847,-5.679 0.553,2.662 1.911,4.949 3.985,6.21 m 53.361,-5.857 c -2.895,-2.24 -11.321,-10.762 -21.018,-15.148 -3.182,-1.387 -18.614,-5.424 -17.189,10.648 6.591,3.948 15.272,23.92 13.864,29.17 -0.362,2.199 -3.026,3.363 -5.401,1.691 -2.849,-2.154 -9.569,-16.821 -11.741,-31.362 -2.512,-2.245 -14.955,-11.951 -16.021,3.589 3.188,1.082 6.42,3.128 7.559,4.916 1.226,1.945 -1.31,5.806 -6.34,3.192 -4.678,-2.476 -18.99,-30.252 -20.233,-32.297 0.125,0.569 0.867,10.198 1.315,13.383 0.873,5.766 3.429,8.654 3.723,9.141 0.979,1.778 -0.994,2.225 -1.644,1.142 -0.902,-1.22 -1.833,-2.421 -2.646,-3.703 -3.469,-5.478 -7.774,-9.982 -10.486,-7.296 -5.806,8.733 5.629,13.431 10.154,12.259 0.705,-0.109 1.2,0.685 0.163,1.035 -3.118,0.978 -12.552,1.78 -13.796,-8.91 -5.518,-8.715 -12.569,-9.676 -14.032,0.439 -0.08,0.436 -0.673,11.216 -1.024,12.271 -0.89,2.633 -4.54,2.936 -7.222,-3.652 -0.687,-1.792 -2.543,-6.902 -1.669,-2.191 0.171,1.57 1.036,5.931 1.255,7.494 0.093,0.652 -0.662,3.582 -2.3,1.667 -2.735,-3.34 -25.586,-34.727 -29.141,-16.868 0.95,1.536 10.777,23.513 6.763,37.027 -0.409,1.447 -1.99,4.33 -4.219,0.252 -1.521,1.295 -17.476,12.346 -24.409,-17.437 -7.098,-43.347 18.001,-26.354 20.545,-21.964 10.221,-18.873 32.451,24.44 30.498,12.742 -0.631,-3.74 -1.213,-7.491 -1.88,-11.223 -0.286,-3.008 1.685,-1.613 2.33,0.351 0.905,2.837 1.771,5.686 2.848,8.453 0.659,1.691 1.285,2.938 2.182,4.532 1.283,1.688 1.836,0.675 1.931,0.009 0.12,-1.643 0.088,-7.764 0.293,-9.27 1.336,-9.583 4.561,-12.627 8.487,-12.492 4.563,0.252 5.857,3.594 8.801,7.724 2.775,-9.669 11.439,-2.854 12.606,0.791 0.139,-1.188 -0.815,-13.942 -1.428,-17.278 -2.681,-3.07 -9.768,-11.821 -13.195,-16.009 -6.991,-8.368 3.35,-14.737 9.184,-3.922 3.169,5.846 5.276,13.793 5.964,19.523 1.565,2.179 13.73,24.491 15.779,27.041 0.807,-18.725 16.094,-9.355 19.434,-5.756 -0.085,-3.719 1.996,-8.743 4.989,-10.513 10.473,-6.177 25.276,6.658 26.507,7.55 4.381,3.392 6.702,5.184 10.637,8.917 0.876,0.615 0.436,1.436 -0.777,0.342"
             style="fill:#666666;fill-opacity:1;fill-rule:nonzero;stroke:none"
             id="path839"
             inkscape:connector-curvature="0" /></g><g
           id="g841"
           transform="translate(20.0415,67.377)"><path
             d="M 0,0 C -2.523,6.083 5.846,7.554 7.336,6.354 5.761,-1.828 1.728,-2.142 0,0 m 1.432,26.273 c -0.744,0.508 -0.883,1.598 -0.42,2.372 1.05,0.433 1.36,-2.138 0.42,-2.372 m 16.584,21.101 c 2.706,2.639 -1.56,-15.238 -4.038,-19.605 0.732,4.894 2.349,17.663 4.038,19.605 M 118.342,12.498 c -1.429,-2.647 -3.409,-4.487 -6.021,-6.126 -1.479,-0.895 -3.846,-1.396 -5.532,0.228 -1.645,1.667 -2.986,6.213 -2.899,10.456 -0.04,0.783 -1.686,1.085 -1.933,-0.291 -0.498,-3.557 -2.449,-5.948 -5.551,-7.683 -1.213,-0.504 -3.704,-0.608 -4.01,2.501 -0.19,2.962 0.864,5.208 3.189,6.979 1.294,0.988 3.094,1.759 4.843,0.23 0.244,-0.36 0.735,-0.311 0.469,0.446 -0.567,1.391 -1.671,2.346 -3.445,2.39 -2.822,0.137 -7.113,-1.948 -8.916,-8.526 -1.241,-1.575 -5.937,-7.621 -8.639,-9.17 1.916,3.757 -2.577,16.683 -2.93,18.212 -0.4,1.974 -0.023,3.494 2.382,2.101 1.25,-0.588 2.042,0.205 0.124,1.054 -2.566,1.306 -4.541,0.84 -5.589,-1.335 C 72.77,22.77 62.022,7.588 53.447,1.858 52.706,1.302 49.604,0.033 50.248,3.916 c 0.299,1.992 2.141,11.147 1.967,13.83 -0.115,1.662 -2.554,2.381 -3.934,1.308 C 45.853,16.751 25.423,-8.339 11.234,8.708 c 1.146,5.955 3.075,16.861 3.505,17.455 3.31,5.489 5.005,12.156 5.549,17.607 1.226,12.232 -5.262,6.521 -5.965,2.778 -0.541,-1.062 -2.797,-20.535 -3.24,-20.722 -2.374,-1.876 -8.166,-1.038 -8.812,-0.44 2.281,5.878 -4.724,5.952 -2.108,-0.224 -4.415,-3.954 -4.859,1.142 -4.019,2.866 0.314,0.862 -0.667,0.942 -0.912,0.351 C -5.769,26.892 -5.655,19.857 1.165,24.221 4.077,21.909 7.859,22.618 10.981,23.57 11.012,22.755 8.743,13.277 8.261,9.616 -7.724,7.497 -1.838,-2.667 1.209,-3.407 c 1.812,-0.663 7.506,-0.215 9.411,9.03 12.764,-16.78 36.258,10.209 37.685,11.894 0.248,0.294 2.02,1.754 0.803,-2.761 C 48.521,12.437 46.621,4.721 46.569,3.161 46.492,0.884 48.358,-0.63 50.592,-0.419 57.568,0.987 72.958,20.037 74.004,22.234 74.076,20.189 78.926,5.845 76.743,2.09 75.296,0.244 72.406,-0.989 70.125,2.509 69.376,4.143 69.198,5.536 69.923,7.154 70,7.327 69.281,7.867 68.804,7.149 68.451,6.62 68.373,5.313 68.398,4.751 c 0.143,-3.096 2.337,-5.323 5.3,-5.202 1.733,0.069 3.681,1.183 5.116,2.154 3.517,2.371 9.187,9.373 9.923,9.968 1.998,-5.579 6.098,-4.918 8.882,-2.767 0.801,0.493 3.434,3.136 3.964,3.703 0.206,-4.102 3.036,-7.181 3.828,-7.545 2.028,-1.13 4.644,-1.017 6.568,0.022 3.649,1.841 6.303,5.456 6.794,6.646 0.44,1.038 -0.257,1.083 -0.431,0.768"
             style="fill:#666666;fill-opacity:1;fill-rule:nonzero;stroke:none"
             id="path843"
             inkscape:connector-curvature="0" /></g><g
           id="g933"
           transform="translate(318.7134,14.3926)" /></g></g></g></svg>